<mxfile host="app.diagrams.net" agent="Mozilla/5.0 (X11; Ubuntu; Linux x86_64; rv:143.0) Gecko/20100101 Firefox/143.0" version="28.2.5">
  <diagram name="Seite-1" id="tv3RCUC1lsHie5otSo7a">
    <mxGraphModel dx="1678" dy="972" grid="1" gridSize="10" guides="1" tooltips="1" connect="1" arrows="1" fold="1" page="1" pageScale="1" pageWidth="827" pageHeight="1169" math="0" shadow="0">
      <root>
        <mxCell id="0" />
        <mxCell id="1" parent="0" />
        <mxCell id="T4kr8lGrIxhb68_Cwea7-1" value="&amp;lt;&amp;lt;interface&amp;gt;&amp;gt;&lt;br&gt;&lt;b&gt;AccountExecutor&lt;/b&gt;&lt;div&gt;&lt;br/&gt;&lt;/div&gt;" style="swimlane;fontStyle=0;align=center;verticalAlign=top;childLayout=stackLayout;horizontal=1;startSize=40;horizontalStack=0;resizeParent=1;resizeParentMax=0;resizeLast=0;collapsible=0;marginBottom=0;html=1;whiteSpace=wrap;" parent="1" vertex="1">
          <mxGeometry x="35" y="140" width="720" height="108" as="geometry" />
        </mxCell>
        <mxCell id="T4kr8lGrIxhb68_Cwea7-6" value="" style="line;strokeWidth=1;fillColor=none;align=left;verticalAlign=middle;spacingTop=-1;spacingLeft=3;spacingRight=3;rotatable=0;labelPosition=right;points=[];portConstraint=eastwest;" parent="T4kr8lGrIxhb68_Cwea7-1" vertex="1">
          <mxGeometry y="40" width="720" height="8" as="geometry" />
        </mxCell>
        <mxCell id="T4kr8lGrIxhb68_Cwea7-8" value="createAccount(CreateAccountRequest), boolean, boolean): AccountResponse" style="text;html=1;strokeColor=none;fillColor=none;align=left;verticalAlign=middle;spacingLeft=4;spacingRight=4;overflow=hidden;rotatable=0;points=[[0,0.5],[1,0.5]];portConstraint=eastwest;whiteSpace=wrap;" parent="T4kr8lGrIxhb68_Cwea7-1" vertex="1">
          <mxGeometry y="48" width="720" height="20" as="geometry" />
        </mxCell>
        <mxCell id="T4kr8lGrIxhb68_Cwea7-9" value="getAccountsPartial(AccountSortParameter, SortDirectionParameter, UUID, String): List&amp;lt;PartialAccountResponse&amp;gt;" style="text;html=1;strokeColor=none;fillColor=none;align=left;verticalAlign=middle;spacingLeft=4;spacingRight=4;overflow=hidden;rotatable=0;points=[[0,0.5],[1,0.5]];portConstraint=eastwest;whiteSpace=wrap;" parent="T4kr8lGrIxhb68_Cwea7-1" vertex="1">
          <mxGeometry y="68" width="720" height="20" as="geometry" />
        </mxCell>
        <mxCell id="T4kr8lGrIxhb68_Cwea7-11" value="getAccountsFull(AccountSortParameter, SortDirectionParameter, UUID, Set&amp;lt;AccountState&amp;gt;, String): List&amp;lt;PartialAccountResponse&amp;gt;" style="text;html=1;strokeColor=none;fillColor=none;align=left;verticalAlign=middle;spacingLeft=4;spacingRight=4;overflow=hidden;rotatable=0;points=[[0,0.5],[1,0.5]];portConstraint=eastwest;whiteSpace=wrap;" parent="T4kr8lGrIxhb68_Cwea7-1" vertex="1">
          <mxGeometry y="88" width="720" height="20" as="geometry" />
        </mxCell>
        <mxCell id="T4kr8lGrIxhb68_Cwea7-12" value="&amp;lt;&amp;lt;interface&amp;gt;&amp;gt;&lt;br&gt;&lt;b&gt;AdminPanelExecutor&lt;/b&gt;&lt;div&gt;&lt;br&gt;&lt;/div&gt;" style="swimlane;fontStyle=0;align=center;verticalAlign=top;childLayout=stackLayout;horizontal=1;startSize=40;horizontalStack=0;resizeParent=1;resizeParentMax=0;resizeLast=0;collapsible=0;marginBottom=0;html=1;whiteSpace=wrap;" parent="1" vertex="1">
          <mxGeometry x="320" y="30" width="150" height="88" as="geometry" />
        </mxCell>
        <mxCell id="T4kr8lGrIxhb68_Cwea7-13" value="" style="line;strokeWidth=1;fillColor=none;align=left;verticalAlign=middle;spacingTop=-1;spacingLeft=3;spacingRight=3;rotatable=0;labelPosition=right;points=[];portConstraint=eastwest;" parent="T4kr8lGrIxhb68_Cwea7-12" vertex="1">
          <mxGeometry y="40" width="150" height="8" as="geometry" />
        </mxCell>
        <mxCell id="T4kr8lGrIxhb68_Cwea7-14" value="shutdown()" style="text;html=1;strokeColor=none;fillColor=none;align=left;verticalAlign=middle;spacingLeft=4;spacingRight=4;overflow=hidden;rotatable=0;points=[[0,0.5],[1,0.5]];portConstraint=eastwest;whiteSpace=wrap;" parent="T4kr8lGrIxhb68_Cwea7-12" vertex="1">
          <mxGeometry y="48" width="150" height="20" as="geometry" />
        </mxCell>
        <mxCell id="T4kr8lGrIxhb68_Cwea7-17" value="restart()" style="text;html=1;strokeColor=none;fillColor=none;align=left;verticalAlign=middle;spacingLeft=4;spacingRight=4;overflow=hidden;rotatable=0;points=[[0,0.5],[1,0.5]];portConstraint=eastwest;whiteSpace=wrap;" parent="T4kr8lGrIxhb68_Cwea7-12" vertex="1">
          <mxGeometry y="68" width="150" height="20" as="geometry" />
        </mxCell>
        <mxCell id="T4kr8lGrIxhb68_Cwea7-18" value="&amp;lt;&amp;lt;interface&amp;gt;&amp;gt;&lt;br&gt;&lt;b&gt;AuthenticationExecutor&lt;/b&gt;&lt;div&gt;&lt;br&gt;&lt;/div&gt;" style="swimlane;fontStyle=0;align=center;verticalAlign=top;childLayout=stackLayout;horizontal=1;startSize=40;horizontalStack=0;resizeParent=1;resizeParentMax=0;resizeLast=0;collapsible=0;marginBottom=0;html=1;whiteSpace=wrap;" parent="1" vertex="1">
          <mxGeometry x="190" y="280" width="410" height="148" as="geometry" />
        </mxCell>
        <mxCell id="T4kr8lGrIxhb68_Cwea7-19" value="" style="line;strokeWidth=1;fillColor=none;align=left;verticalAlign=middle;spacingTop=-1;spacingLeft=3;spacingRight=3;rotatable=0;labelPosition=right;points=[];portConstraint=eastwest;" parent="T4kr8lGrIxhb68_Cwea7-18" vertex="1">
          <mxGeometry y="40" width="410" height="8" as="geometry" />
        </mxCell>
        <mxCell id="T4kr8lGrIxhb68_Cwea7-20" value="submitEmailVerification(SubmitEmailVerificationRequest)" style="text;html=1;strokeColor=none;fillColor=none;align=left;verticalAlign=middle;spacingLeft=4;spacingRight=4;overflow=hidden;rotatable=0;points=[[0,0.5],[1,0.5]];portConstraint=eastwest;whiteSpace=wrap;" parent="T4kr8lGrIxhb68_Cwea7-18" vertex="1">
          <mxGeometry y="48" width="410" height="20" as="geometry" />
        </mxCell>
        <mxCell id="T4kr8lGrIxhb68_Cwea7-21" value="signup(CreateAccountRequest, boolean): AccountWithTokensResponse" style="text;html=1;strokeColor=none;fillColor=none;align=left;verticalAlign=middle;spacingLeft=4;spacingRight=4;overflow=hidden;rotatable=0;points=[[0,0.5],[1,0.5]];portConstraint=eastwest;whiteSpace=wrap;" parent="T4kr8lGrIxhb68_Cwea7-18" vertex="1">
          <mxGeometry y="68" width="410" height="20" as="geometry" />
        </mxCell>
        <mxCell id="T4kr8lGrIxhb68_Cwea7-22" value="refresh(RefreshRequest): AccountWithTokensResponse" style="text;html=1;strokeColor=none;fillColor=none;align=left;verticalAlign=middle;spacingLeft=4;spacingRight=4;overflow=hidden;rotatable=0;points=[[0,0.5],[1,0.5]];portConstraint=eastwest;whiteSpace=wrap;" parent="T4kr8lGrIxhb68_Cwea7-18" vertex="1">
          <mxGeometry y="88" width="410" height="20" as="geometry" />
        </mxCell>
        <mxCell id="T4kr8lGrIxhb68_Cwea7-25" value="login(CredentialsReuqest): AccountWithTokensResponse" style="text;html=1;strokeColor=none;fillColor=none;align=left;verticalAlign=middle;spacingLeft=4;spacingRight=4;overflow=hidden;rotatable=0;points=[[0,0.5],[1,0.5]];portConstraint=eastwest;whiteSpace=wrap;" parent="T4kr8lGrIxhb68_Cwea7-18" vertex="1">
          <mxGeometry y="108" width="410" height="20" as="geometry" />
        </mxCell>
        <mxCell id="T4kr8lGrIxhb68_Cwea7-26" value="requestEmailVerification(boolean)" style="text;html=1;strokeColor=none;fillColor=none;align=left;verticalAlign=middle;spacingLeft=4;spacingRight=4;overflow=hidden;rotatable=0;points=[[0,0.5],[1,0.5]];portConstraint=eastwest;whiteSpace=wrap;" parent="T4kr8lGrIxhb68_Cwea7-18" vertex="1">
          <mxGeometry y="128" width="410" height="20" as="geometry" />
        </mxCell>
        <mxCell id="T4kr8lGrIxhb68_Cwea7-27" value="&amp;lt;&amp;lt;interface&amp;gt;&amp;gt;&lt;br&gt;&lt;b&gt;ReplicExecutor&lt;/b&gt;&lt;div&gt;&lt;br&gt;&lt;/div&gt;" style="swimlane;fontStyle=0;align=center;verticalAlign=top;childLayout=stackLayout;horizontal=1;startSize=40;horizontalStack=0;resizeParent=1;resizeParentMax=0;resizeLast=0;collapsible=0;marginBottom=0;html=1;whiteSpace=wrap;" parent="1" vertex="1">
          <mxGeometry x="60" y="640" width="670" height="108" as="geometry" />
        </mxCell>
        <mxCell id="T4kr8lGrIxhb68_Cwea7-28" value="" style="line;strokeWidth=1;fillColor=none;align=left;verticalAlign=middle;spacingTop=-1;spacingLeft=3;spacingRight=3;rotatable=0;labelPosition=right;points=[];portConstraint=eastwest;" parent="T4kr8lGrIxhb68_Cwea7-27" vertex="1">
          <mxGeometry y="40" width="670" height="8" as="geometry" />
        </mxCell>
        <mxCell id="T4kr8lGrIxhb68_Cwea7-29" value="getReplics(ReplicSortParameter, SortDirectionParameter, UUID, UUID, Set&amp;lt;ReplicState&amp;gt;, String): List&amp;lt;ReplicResponse&amp;gt;" style="text;html=1;strokeColor=none;fillColor=none;align=left;verticalAlign=middle;spacingLeft=4;spacingRight=4;overflow=hidden;rotatable=0;points=[[0,0.5],[1,0.5]];portConstraint=eastwest;whiteSpace=wrap;" parent="T4kr8lGrIxhb68_Cwea7-27" vertex="1">
          <mxGeometry y="48" width="670" height="20" as="geometry" />
        </mxCell>
        <mxCell id="T4kr8lGrIxhb68_Cwea7-30" value="createReplic(CreateReplicRequest): ReplicResponse" style="text;html=1;strokeColor=none;fillColor=none;align=left;verticalAlign=middle;spacingLeft=4;spacingRight=4;overflow=hidden;rotatable=0;points=[[0,0.5],[1,0.5]];portConstraint=eastwest;whiteSpace=wrap;" parent="T4kr8lGrIxhb68_Cwea7-27" vertex="1">
          <mxGeometry y="68" width="670" height="20" as="geometry" />
        </mxCell>
        <mxCell id="T4kr8lGrIxhb68_Cwea7-31" value="getReplicContent(UUID, String): String" style="text;html=1;strokeColor=none;fillColor=none;align=left;verticalAlign=middle;spacingLeft=4;spacingRight=4;overflow=hidden;rotatable=0;points=[[0,0.5],[1,0.5]];portConstraint=eastwest;whiteSpace=wrap;" parent="T4kr8lGrIxhb68_Cwea7-27" vertex="1">
          <mxGeometry y="88" width="670" height="20" as="geometry" />
        </mxCell>
        <mxCell id="T4kr8lGrIxhb68_Cwea7-36" value="&amp;lt;&amp;lt;interface&amp;gt;&amp;gt;&lt;br&gt;&lt;b&gt;ReportExecutor&lt;/b&gt;&lt;div&gt;&lt;br&gt;&lt;/div&gt;" style="swimlane;fontStyle=0;align=center;verticalAlign=top;childLayout=stackLayout;horizontal=1;startSize=40;horizontalStack=0;resizeParent=1;resizeParentMax=0;resizeLast=0;collapsible=0;marginBottom=0;html=1;whiteSpace=wrap;" parent="1" vertex="1">
          <mxGeometry x="130" y="779" width="530" height="108" as="geometry" />
        </mxCell>
        <mxCell id="T4kr8lGrIxhb68_Cwea7-37" value="" style="line;strokeWidth=1;fillColor=none;align=left;verticalAlign=middle;spacingTop=-1;spacingLeft=3;spacingRight=3;rotatable=0;labelPosition=right;points=[];portConstraint=eastwest;" parent="T4kr8lGrIxhb68_Cwea7-36" vertex="1">
          <mxGeometry y="40" width="530" height="8" as="geometry" />
        </mxCell>
        <mxCell id="T4kr8lGrIxhb68_Cwea7-38" value="getReports(ReportSortParameter, SortDirectionParameter, UUID, String): List&amp;lt;ReportResponse&amp;gt;" style="text;html=1;strokeColor=none;fillColor=none;align=left;verticalAlign=middle;spacingLeft=4;spacingRight=4;overflow=hidden;rotatable=0;points=[[0,0.5],[1,0.5]];portConstraint=eastwest;whiteSpace=wrap;" parent="T4kr8lGrIxhb68_Cwea7-36" vertex="1">
          <mxGeometry y="48" width="530" height="20" as="geometry" />
        </mxCell>
        <mxCell id="T4kr8lGrIxhb68_Cwea7-39" value="createReport(CreateReportRequest, UUID): ReportResponse" style="text;html=1;strokeColor=none;fillColor=none;align=left;verticalAlign=middle;spacingLeft=4;spacingRight=4;overflow=hidden;rotatable=0;points=[[0,0.5],[1,0.5]];portConstraint=eastwest;whiteSpace=wrap;" parent="T4kr8lGrIxhb68_Cwea7-36" vertex="1">
          <mxGeometry y="68" width="530" height="20" as="geometry" />
        </mxCell>
        <mxCell id="LKBNffSOK_iH0aHdxePR-1" value="updateReport(UUID, ReportState): ReportResponse" style="text;html=1;strokeColor=none;fillColor=none;align=left;verticalAlign=middle;spacingLeft=4;spacingRight=4;overflow=hidden;rotatable=0;points=[[0,0.5],[1,0.5]];portConstraint=eastwest;whiteSpace=wrap;" parent="T4kr8lGrIxhb68_Cwea7-36" vertex="1">
          <mxGeometry y="88" width="530" height="20" as="geometry" />
        </mxCell>
        <mxCell id="T4kr8lGrIxhb68_Cwea7-41" value="&amp;lt;&amp;lt;interface&amp;gt;&amp;gt;&lt;br&gt;&lt;b&gt;ServerConfigExecutor&lt;/b&gt;&lt;div&gt;&lt;br&gt;&lt;/div&gt;" style="swimlane;fontStyle=0;align=center;verticalAlign=top;childLayout=stackLayout;horizontal=1;startSize=40;horizontalStack=0;resizeParent=1;resizeParentMax=0;resizeLast=0;collapsible=0;marginBottom=0;html=1;whiteSpace=wrap;" parent="1" vertex="1">
          <mxGeometry x="235" y="899" width="320" height="88" as="geometry" />
        </mxCell>
        <mxCell id="T4kr8lGrIxhb68_Cwea7-42" value="" style="line;strokeWidth=1;fillColor=none;align=left;verticalAlign=middle;spacingTop=-1;spacingLeft=3;spacingRight=3;rotatable=0;labelPosition=right;points=[];portConstraint=eastwest;" parent="T4kr8lGrIxhb68_Cwea7-41" vertex="1">
          <mxGeometry y="40" width="320" height="8" as="geometry" />
        </mxCell>
        <mxCell id="T4kr8lGrIxhb68_Cwea7-43" value="getServerConfig(): ServerConfigDto" style="text;html=1;strokeColor=none;fillColor=none;align=left;verticalAlign=middle;spacingLeft=4;spacingRight=4;overflow=hidden;rotatable=0;points=[[0,0.5],[1,0.5]];portConstraint=eastwest;whiteSpace=wrap;" parent="T4kr8lGrIxhb68_Cwea7-41" vertex="1">
          <mxGeometry y="48" width="320" height="20" as="geometry" />
        </mxCell>
        <mxCell id="T4kr8lGrIxhb68_Cwea7-44" value="setServerConfig(ServerCOnfigDto): ServerConfigDto" style="text;html=1;strokeColor=none;fillColor=none;align=left;verticalAlign=middle;spacingLeft=4;spacingRight=4;overflow=hidden;rotatable=0;points=[[0,0.5],[1,0.5]];portConstraint=eastwest;whiteSpace=wrap;" parent="T4kr8lGrIxhb68_Cwea7-41" vertex="1">
          <mxGeometry y="68" width="320" height="20" as="geometry" />
        </mxCell>
        <mxCell id="LKBNffSOK_iH0aHdxePR-2" value="&amp;lt;&amp;lt;interface&amp;gt;&amp;gt;&lt;br&gt;&lt;b&gt;AuthenticationExecutor&lt;/b&gt;&lt;div&gt;&lt;br&gt;&lt;/div&gt;" style="swimlane;fontStyle=0;align=center;verticalAlign=top;childLayout=stackLayout;horizontal=1;startSize=40;horizontalStack=0;resizeParent=1;resizeParentMax=0;resizeLast=0;collapsible=0;marginBottom=0;html=1;whiteSpace=wrap;" parent="1" vertex="1">
          <mxGeometry x="190" y="460" width="410" height="108" as="geometry" />
        </mxCell>
        <mxCell id="LKBNffSOK_iH0aHdxePR-3" value="" style="line;strokeWidth=1;fillColor=none;align=left;verticalAlign=middle;spacingTop=-1;spacingLeft=3;spacingRight=3;rotatable=0;labelPosition=right;points=[];portConstraint=eastwest;" parent="LKBNffSOK_iH0aHdxePR-2" vertex="1">
          <mxGeometry y="40" width="410" height="8" as="geometry" />
        </mxCell>
        <mxCell id="LKBNffSOK_iH0aHdxePR-7" value="getMe(): AccountResponse" style="text;html=1;strokeColor=none;fillColor=none;align=left;verticalAlign=middle;spacingLeft=4;spacingRight=4;overflow=hidden;rotatable=0;points=[[0,0.5],[1,0.5]];portConstraint=eastwest;whiteSpace=wrap;" parent="LKBNffSOK_iH0aHdxePR-2" vertex="1">
          <mxGeometry y="48" width="410" height="20" as="geometry" />
        </mxCell>
        <mxCell id="LKBNffSOK_iH0aHdxePR-8" value="updateMe(UpdateAccountRequest): AccountResponse" style="text;html=1;strokeColor=none;fillColor=none;align=left;verticalAlign=middle;spacingLeft=4;spacingRight=4;overflow=hidden;rotatable=0;points=[[0,0.5],[1,0.5]];portConstraint=eastwest;whiteSpace=wrap;" parent="LKBNffSOK_iH0aHdxePR-2" vertex="1">
          <mxGeometry y="68" width="410" height="20" as="geometry" />
        </mxCell>
        <mxCell id="LKBNffSOK_iH0aHdxePR-11" value="getQuotaProgress(): QuotaProgressResponse" style="text;html=1;strokeColor=none;fillColor=none;align=left;verticalAlign=middle;spacingLeft=4;spacingRight=4;overflow=hidden;rotatable=0;points=[[0,0.5],[1,0.5]];portConstraint=eastwest;whiteSpace=wrap;" parent="LKBNffSOK_iH0aHdxePR-2" vertex="1">
          <mxGeometry y="88" width="410" height="20" as="geometry" />
        </mxCell>
      </root>
    </mxGraphModel>
  </diagram>
</mxfile>
